<svg version="1.1" xmlns="http://www.w3.org/2000/svg" style="display: block;" viewBox="0 0 2048 2048" width="1024" height="1024" preserveAspectRatio="none">
<path transform="translate(0,0)" fill="rgb(255,255,255)" d="M 0 0 L 87.3507 0 C 79.1206 4.37887 70.5796 9.16615 67.6291 18.684 C 63.2259 32.888 66.0972 79.0464 65.9861 96.1024 L 65.0379 336.503 L 65.0779 412.225 C 65.1496 426.953 65.8864 442.032 65.1099 456.729 C 64.8305 462.017 63.9344 466.288 61.8775 471.142 C 49.1253 501.238 33.7109 530.631 19.6786 560.16 C 13.904 572.312 5.11144 586.269 2.76579 599.506 C 1.36974 607.068 2.75589 614.879 6.66845 621.499 C 10.0239 627.255 14.5739 631.181 20.0667 634.802 C 24.4815 637.713 27.7736 639.555 33.194 639.7 C 59.5885 640.408 86.1517 639.84 112.569 639.833 L 262.071 639.43 L 558.975 638.92 L 711.073 638.96 C 727.326 639.004 762.505 641.099 776.443 638.66 C 784.565 637.239 793.231 632.054 797.897 625.17 C 802.761 617.994 803.585 608.455 801.743 600.17 C 798.308 584.722 788.219 568.414 781.299 554.162 L 751.805 493.165 C 746.866 483.188 740.201 472.537 737.547 461.724 C 734.318 448.567 736.012 432.29 736.033 418.748 L 736.183 352.807 C 736.406 269.076 736.922 185.176 735.802 101.459 C 735.587 85.4549 736.912 34.0328 732.861 22.7792 C 730.205 15.4017 724.533 9.46614 717.844 5.5572 C 714.182 3.4167 709.888 1.68231 705.732 0.778922 L 705.899 0 L 2048 0 L 2048 387.055 L 2047.14 387.051 C 2014.89 385.47 1982.13 386.577 1949.82 386.546 C 1944.62 368.211 1937.33 351.351 1928.63 334.451 C 1945.71 312.019 1967.75 293.569 1987.08 273.125 C 1978.63 259.612 1955.92 240.828 1943.91 228.405 C 1922.25 247.316 1902.47 269.247 1881.94 289.462 C 1862.87 277.768 1846.41 268.764 1824.21 264.503 C 1824.15 235.522 1824.23 206.541 1824.46 177.561 C 1802.66 177.718 1780.86 177.728 1759.07 177.59 C 1759.09 206.498 1758.55 235.523 1759.2 264.416 C 1738.6 269.665 1722.53 276.818 1704.54 288.243 C 1692.1 277.11 1680.12 265.476 1668.63 253.37 C 1660.65 245.038 1652.76 235.891 1643.99 228.393 C 1629.01 243.383 1614.49 258.77 1599.35 273.614 C 1618.06 294.277 1638.01 315.989 1658.91 334.408 C 1648.37 350.964 1638.83 367.371 1635.36 386.946 C 1603.7 386.247 1572.02 386.056 1540.35 386.372 C 1540.45 408.116 1539.98 430.056 1540.74 451.775 C 1572.28 452.076 1603.83 452.141 1635.38 451.973 C 1641.25 471.581 1648.99 489.491 1658.61 507.531 C 1637.82 527.113 1616.97 547.357 1597.69 568.417 C 1612.71 583.195 1628.37 597.782 1642.49 613.417 C 1652.94 602.588 1663.2 591.466 1673.92 580.912 C 1683.28 571.699 1693.16 563.047 1701.73 553.059 C 1719.4 565.739 1739.67 573.6 1760.92 578.088 L 1761.48 663.041 L 1824.83 663.12 L 1825.05 577.718 C 1846.26 573.198 1865.31 565.202 1882.92 552.418 C 1902.8 572.22 1923.82 590.713 1943.25 611.031 C 1959.21 599.228 1973.2 582.77 1986.33 567.928 C 1968.31 546.233 1945.74 528.457 1928 506.387 C 1939.47 490.076 1945.63 471.329 1949.87 452.011 C 1967.31 452.012 2036.38 454.319 2047.27 450.201 L 2048 450.067 L 2048 1628.2 L 2047.71 1627.14 C 2044.77 1615.85 2043.37 1604.28 2040.15 1593.02 C 2028.75 1553.17 2004.51 1521.05 1968.73 1499.75 C 1945.64 1486.01 1917.36 1476.75 1890.5 1475.2 C 1926.47 1470.74 1955.86 1450.16 1977.99 1422.02 C 2009.26 1382.27 2023.23 1328.8 2017.22 1278.77 C 2012.51 1239.54 1994.27 1203.13 1962.77 1178.77 C 1933.26 1155.94 1893.29 1145.02 1856.26 1149.85 C 1815.64 1155.14 1781.91 1175.84 1757.25 1208.27 C 1730.22 1243.84 1724.11 1287.58 1730.42 1330.93 C 1736.93 1375.61 1759.97 1422.87 1797.02 1450.06 C 1817.22 1464.89 1838.23 1472.09 1862.78 1475.09 C 1835.99 1478.63 1811.88 1484.03 1788.86 1498.89 C 1761.65 1516.44 1742.47 1543.65 1722.2 1568.27 L 1632.9 1677.13 C 1620.17 1692.68 1606.86 1711.93 1592.96 1726.08 L 1487.56 1726.23 C 1462.1 1726.21 1428.41 1723.26 1404.27 1729.6 C 1390.17 1733.3 1377.41 1741.4 1367.21 1751.71 C 1362.09 1756.89 1357.84 1762.71 1353.53 1768.56 C 1342.36 1746.33 1333.25 1722.91 1323.83 1699.89 L 1284.81 1604.33 C 1268.84 1565.14 1250.32 1526.79 1235.12 1487.35 C 1216.52 1494.57 1196.61 1502.17 1179 1511.5 C 1192.76 1539.83 1204.14 1569.49 1216.13 1598.6 L 1256.78 1696.28 C 1278.45 1749.48 1301.89 1801.96 1323.49 1855.18 L 1166.78 1855.08 C 1140.15 1855.07 1113.32 1854.6 1086.71 1855.46 C 1086.53 1876.29 1086.52 1897.12 1086.68 1917.95 L 1281.31 1917.86 L 1281.97 2048 L 768.173 2048 L 768.008 1917.98 C 832.316 1917.01 896.758 1917.84 961.081 1917.8 L 961.005 1854.92 L 721.882 1855.54 L 868.624 1510.97 C 850.055 1503.88 832.384 1494.32 813.621 1487.87 C 804.662 1508.52 794.847 1528.81 785.971 1549.51 C 754.208 1623.56 723.755 1698.39 690.406 1771.75 L 688.414 1771.14 C 683.922 1762.51 678.144 1754.61 671.28 1747.72 C 662.52 1739.05 651.871 1732.54 639.787 1729.77 C 619.197 1725.07 589.458 1727.59 567.858 1727.59 L 448.932 1727.69 C 436.118 1713.66 425.303 1696.9 414.088 1681.53 C 396.122 1656.92 377.581 1632.77 359.299 1608.39 C 330.139 1569.51 313.822 1542.42 273.435 1511.97 C 264.466 1505.21 255.419 1498.42 245.393 1493.29 C 227.032 1483.9 208.334 1480.03 188.802 1474.43 C 206.991 1471.25 221.485 1467.36 237.552 1457.61 C 279.275 1432.3 307.025 1384.62 318.221 1338.11 C 328.053 1297.27 322.998 1255 300.565 1219.01 C 281.083 1187.77 246.555 1162.83 210.513 1154.85 C 173.16 1146.49 134.011 1153.38 101.765 1174.01 C 67.029 1196.49 41.6962 1230.31 33.1218 1271 C 23.4067 1317.11 36.7453 1365.98 62.1262 1404.9 C 85.4642 1440.69 113.92 1465.29 156.244 1474.24 C 145.819 1476.1 135.425 1478.14 125.273 1481.19 C 65.3352 1499.55 19.8176 1548.6 5.97812 1609.74 C 4.3337 1617.22 3.6999 1642 0.721938 1646.96 C 0.494035 1647.34 0.240646 1647.71 0 1648.08 L 0 0 z M 1326.66 640.082 L 1312.89 639.97 C 1312.69 742.346 1311.05 844.912 1312.39 947.269 L 1312.75 1152.36 L 1441.44 1152.7 C 1442.48 1095.56 1441.73 1038.27 1441.76 981.118 L 1441.85 639.335 C 1403.74 642.29 1364.91 638.535 1326.66 640.082 z M 803.12 927.575 L 800.556 928.812 C 799.345 933.39 799.084 1144.8 800.656 1151.45 C 802.586 1151.99 804.004 1152.22 806.008 1152.11 L 927.204 1151.97 C 928.299 1127.14 927.362 1101.89 927.335 1077.01 L 927.471 927.25 C 886.022 927.601 844.571 927.709 803.12 927.575 z M 1088.69 2.49343 C 1086.45 16.561 1088.16 32.7777 1088.18 47.1528 L 1088.33 147.295 L 1088.36 337.472 C 1088.34 374.112 1087.21 411.28 1088.88 447.868 L 1470.91 447.905 L 1471.02 2.80891 L 1088.69 2.49343 z M 914.687 194.646 C 901.497 208.184 886.736 221.729 874.94 236.44 C 886.251 246.678 896.658 257.77 907.056 268.921 L 800.045 269.048 L 800.02 332.402 C 835.572 331.873 871.109 333.148 906.661 333.118 C 896.104 341.752 885.222 350.098 875.688 359.875 C 879.134 364.479 882.529 369.117 886.223 373.527 C 895.233 384.377 904.135 395.316 912.928 406.341 C 935.841 388.352 958.857 370.496 981.976 352.773 C 994.112 343.443 1008.89 334.44 1018.93 322.884 C 1023.71 317.38 1027.65 310.824 1028.44 303.437 C 1029.38 294.608 1025.63 286.54 1020.03 279.924 C 1007.39 264.996 988.358 252.65 972.912 240.585 L 914.687 194.646 z M 377.986 729.507 L 314.344 738.338 C 320.274 772.675 328.778 805.529 342.246 837.74 C 368.727 901.07 416.596 962.299 472.715 1002.11 C 492.341 1016.03 513.637 1027.72 532.301 1042.98 C 521.142 1045.86 510.202 1049.11 499.238 1052.66 C 504.406 1072.31 511.41 1091.81 515.975 1111.55 C 555.019 1102.5 594.883 1096.15 633.751 1086.46 C 644.178 1082.95 653.076 1078.06 658.21 1067.8 C 663.777 1056.66 662.253 1045.88 658.205 1034.69 C 643.943 995.298 624.191 957.641 610.942 917.889 C 592.2 923.501 573.751 930.467 555.245 936.827 C 563.07 953.562 570.341 971.158 576.399 988.615 C 489.701 947.441 427.551 886.831 394.964 795.43 C 388.431 777.107 383.944 759.097 380.237 740.013 C 379.743 737.472 379.401 731.213 377.986 729.507 z M 1845.5 765.786 C 1820.71 881.681 1764.85 978.568 1663.84 1043.91 C 1642.63 1057.63 1620.88 1069.26 1598.04 1079.99 C 1607.97 1099.22 1618.07 1118.36 1628.33 1137.42 C 1634.75 1134.67 1641.05 1131.8 1647.29 1128.66 C 1762.25 1070.49 1846.7 973.633 1886.95 851.141 C 1894.36 828.588 1901.53 805.13 1905.65 781.714 C 1885.73 776.297 1865.2 771.794 1845.5 765.786 z M 1162.95 769.485 C 1127.36 769.834 1091.78 769.976 1056.19 769.91 L 1056.19 1152.23 L 1078.75 1152.27 L 1183.28 1152.04 C 1184.42 1100.14 1183.41 1048.06 1183.36 996.147 L 1183.7 769.094 L 1162.95 769.485 z M 703.072 1214.06 C 704.302 1235.48 703.749 1257.06 703.566 1278.51 C 743.524 1280.67 784.31 1279.03 824.372 1278.97 L 1056.53 1278.37 L 1371.52 1278.74 C 1425.21 1278.79 1479.14 1279.67 1532.81 1278.35 C 1535.89 1269.16 1533.8 1226.9 1533.89 1214.16 L 703.072 1214.06 z"/>
<path transform="translate(0,0)" fill="rgb(46,115,234)" d="M 87.3507 0 L 88.8009 0 L 705.899 0 L 705.732 0.778922 C 709.888 1.68231 714.182 3.4167 717.844 5.5572 C 724.533 9.46614 730.205 15.4017 732.861 22.7792 C 736.912 34.0328 735.587 85.4549 735.802 101.459 C 736.922 185.176 736.406 269.076 736.183 352.807 L 736.033 418.748 C 736.012 432.29 734.318 448.567 737.547 461.724 C 740.201 472.537 746.866 483.188 751.805 493.165 L 781.299 554.162 C 788.219 568.414 798.308 584.722 801.743 600.17 C 803.585 608.455 802.761 617.994 797.897 625.17 C 793.231 632.054 784.565 637.239 776.443 638.66 C 762.505 641.099 727.326 639.004 711.073 638.96 L 558.975 638.92 L 262.071 639.43 L 112.569 639.833 C 86.1517 639.84 59.5885 640.408 33.194 639.7 C 27.7736 639.555 24.4815 637.713 20.0667 634.802 C 14.5739 631.181 10.0239 627.255 6.66845 621.499 C 2.75589 614.879 1.36974 607.068 2.76579 599.506 C 5.11144 586.269 13.904 572.312 19.6786 560.16 C 33.7109 530.631 49.1253 501.238 61.8775 471.142 C 63.9344 466.288 64.8305 462.017 65.1099 456.729 C 65.8864 442.032 65.1496 426.953 65.0779 412.225 L 65.0379 336.503 L 65.9861 96.1024 C 66.0972 79.0464 63.2259 32.888 67.6291 18.684 C 70.5796 9.16615 79.1206 4.37887 87.3507 0 z M 130.467 64.483 C 128.693 65.7916 129.07 64.9821 128.809 66.8394 C 127.333 77.357 128.768 90.1919 128.785 100.918 L 128.879 179.789 L 128.918 448.066 L 671.666 448.028 C 672.897 433.087 672.106 417.592 672.082 402.579 L 671.997 323.747 L 671.831 64.2788 C 576.347 63.9228 480.862 64.1283 385.381 64.8954 C 300.477 64.963 215.346 63.2524 130.467 64.483 z"/>
<path transform="translate(0,0)" fill="rgb(34,221,210)" d="M 1088.88 447.868 C 1087.21 411.28 1088.34 374.112 1088.36 337.472 L 1088.33 147.295 L 1088.18 47.1528 C 1088.16 32.7777 1086.45 16.561 1088.69 2.49343 L 1471.02 2.80891 L 1470.91 447.905 L 1088.88 447.868 z M 1151.4 64.4242 C 1153.13 171.533 1151.93 278.846 1151.83 385.974 L 1409.91 385.101 C 1411.52 373.78 1410.47 361.386 1410.43 349.919 L 1410.17 284.328 L 1410.35 64.9828 L 1151.4 64.4242 z"/>
<path transform="translate(0,0)" fill="rgb(255,255,255)" d="M 128.918 448.066 L 128.879 179.789 L 128.785 100.918 C 128.768 90.1919 127.333 77.357 128.809 66.8394 C 129.07 64.9821 128.693 65.7916 130.467 64.483 C 215.346 63.2524 300.477 64.963 385.381 64.8954 C 480.862 64.1283 576.347 63.9228 671.831 64.2788 L 671.997 323.747 L 672.082 402.579 C 672.106 417.592 672.897 433.087 671.666 448.028 L 128.918 448.066 z M 513.786 160.193 L 513.716 382.781 L 605.917 382.395 C 606.674 363.645 606.042 344.732 605.982 325.962 L 605.868 220.323 C 605.856 200.381 605.352 180.31 606.043 160.384 C 575.328 159.609 544.513 160.137 513.786 160.193 z M 355.077 259.865 L 355.063 382.504 C 385.19 382.67 415.317 382.575 445.441 382.22 L 445.222 259.61 L 355.077 259.865 z M 192.962 319.013 L 193.01 382.082 L 287.18 382.087 C 287.073 361.076 287.093 340.065 287.241 319.055 C 255.815 319.265 224.388 319.251 192.962 319.013 z"/>
<path transform="translate(0,0)" fill="rgb(255,255,255)" d="M 1151.83 385.974 C 1151.93 278.846 1153.13 171.533 1151.4 64.4242 L 1410.35 64.9828 L 1410.17 284.328 L 1410.43 349.919 C 1410.47 361.386 1411.52 373.78 1409.91 385.101 L 1151.83 385.974 z M 1217.08 128.124 L 1216.94 191.965 L 1346.47 191.945 C 1346.18 170.729 1345.66 149.306 1346.8 128.113 C 1303.59 128.188 1260.27 128.888 1217.08 128.124 z M 1216.36 254.92 C 1216.49 276.614 1216.5 298.309 1216.39 320.003 L 1345.66 319.939 C 1347.58 298.639 1345.71 276.475 1346.15 255.035 L 1216.36 254.92 z"/>
<path transform="translate(0,0)" fill="rgb(34,221,210)" d="M 1216.94 191.965 L 1217.08 128.124 C 1260.27 128.888 1303.59 128.188 1346.8 128.113 C 1345.66 149.306 1346.18 170.729 1346.47 191.945 L 1216.94 191.965 z"/>
<path transform="translate(0,0)" fill="rgb(2,60,197)" d="M 513.716 382.781 L 513.786 160.193 C 544.513 160.137 575.328 159.609 606.043 160.384 C 605.352 180.31 605.856 200.381 605.868 220.323 L 605.982 325.962 C 606.042 344.732 606.674 363.645 605.917 382.395 L 513.716 382.781 z M 593.898 163.477 C 568.256 163.903 542.542 164.336 516.905 163.591 L 516.914 319.18 C 516.916 330.308 515.072 371.107 517.718 379.2 C 520.322 380.162 522.412 380.08 525.122 379.981 L 601.871 379.975 C 601.871 357.279 603.171 169.662 601.81 165.77 C 601.555 165.039 600.944 164.487 600.512 163.845 C 598.166 163.331 596.29 163.319 593.898 163.477 z"/>
<path transform="translate(0,0)" fill="rgb(34,221,210)" d="M 516.905 163.591 C 542.542 164.336 568.256 163.903 593.898 163.477 C 596.29 163.319 598.166 163.331 600.512 163.845 C 600.944 164.487 601.555 165.039 601.81 165.77 C 603.171 169.662 601.871 357.279 601.871 379.975 L 525.122 379.981 C 522.412 380.08 520.322 380.162 517.718 379.2 C 515.072 371.107 516.916 330.308 516.914 319.18 L 516.905 163.591 z"/>
<path transform="translate(0,0)" fill="rgb(46,115,234)" d="M 1949.82 386.546 C 1982.13 386.577 2014.89 385.47 2047.14 387.051 L 2048 387.055 L 2048 450.067 L 2047.27 450.201 C 2036.38 454.319 1967.31 452.012 1949.87 452.011 C 1945.63 471.329 1939.47 490.076 1928 506.387 C 1945.74 528.457 1968.31 546.233 1986.33 567.928 C 1973.2 582.77 1959.21 599.228 1943.25 611.031 C 1923.82 590.713 1902.8 572.22 1882.92 552.418 C 1865.31 565.202 1846.26 573.198 1825.05 577.718 L 1824.83 663.12 L 1761.48 663.041 L 1760.92 578.088 C 1739.67 573.6 1719.4 565.739 1701.73 553.059 C 1693.16 563.047 1683.28 571.699 1673.92 580.912 C 1663.2 591.466 1652.94 602.588 1642.49 613.417 C 1628.37 597.782 1612.71 583.195 1597.69 568.417 C 1616.97 547.357 1637.82 527.113 1658.61 507.531 C 1648.99 489.491 1641.25 471.581 1635.38 451.973 C 1603.83 452.141 1572.28 452.076 1540.74 451.775 C 1539.98 430.056 1540.45 408.116 1540.35 386.372 C 1572.02 386.056 1603.7 386.247 1635.36 386.946 C 1638.83 367.371 1648.37 350.964 1658.91 334.408 C 1638.01 315.989 1618.06 294.277 1599.35 273.614 C 1614.49 258.77 1629.01 243.383 1643.99 228.393 C 1652.76 235.891 1660.65 245.038 1668.63 253.37 C 1680.12 265.476 1692.1 277.11 1704.54 288.243 C 1722.53 276.818 1738.6 269.665 1759.2 264.416 C 1758.55 235.523 1759.09 206.498 1759.07 177.59 C 1780.86 177.728 1802.66 177.718 1824.46 177.561 C 1824.23 206.541 1824.15 235.522 1824.21 264.503 C 1846.41 268.764 1862.87 277.768 1881.94 289.462 C 1902.47 269.247 1922.25 247.316 1943.91 228.405 C 1955.92 240.828 1978.63 259.612 1987.08 273.125 C 1967.75 293.569 1945.71 312.019 1928.63 334.451 C 1937.33 351.351 1944.62 368.211 1949.82 386.546 z M 1781.59 325.394 C 1728.54 331.483 1690.55 379.555 1696.89 432.581 C 1703.23 485.607 1751.48 523.365 1804.48 516.772 C 1857.12 510.223 1894.57 462.364 1888.27 409.694 C 1881.97 357.023 1834.29 319.345 1781.59 325.394 z"/>
<path transform="translate(0,0)" fill="rgb(46,115,234)" d="M 874.94 236.44 C 886.736 221.729 901.497 208.184 914.687 194.646 L 972.912 240.585 C 988.358 252.65 1007.39 264.996 1020.03 279.924 C 1025.63 286.54 1029.38 294.608 1028.44 303.437 C 1027.65 310.824 1023.71 317.38 1018.93 322.884 C 1008.89 334.44 994.112 343.443 981.976 352.773 C 958.857 370.496 935.841 388.352 912.928 406.341 C 904.135 395.316 895.233 384.377 886.223 373.527 C 882.529 369.117 879.134 364.479 875.688 359.875 C 885.222 350.098 896.104 341.752 906.661 333.118 C 871.109 333.148 835.572 331.873 800.02 332.402 L 800.045 269.048 L 907.056 268.921 C 896.658 257.77 886.251 246.678 874.94 236.44 z"/>
<path transform="translate(0,0)" fill="rgb(34,221,210)" d="M 1216.39 320.003 C 1216.5 298.309 1216.49 276.614 1216.36 254.92 L 1346.15 255.035 C 1345.71 276.475 1347.58 298.639 1345.66 319.939 L 1216.39 320.003 z"/>
<path transform="translate(0,0)" fill="rgb(2,60,197)" d="M 355.063 382.504 L 355.077 259.865 L 445.222 259.61 L 445.441 382.22 C 415.317 382.575 385.19 382.67 355.063 382.504 z M 358.194 262.276 C 359.131 301.191 359.762 341.197 357.936 380.068 L 441.813 380.025 C 443.042 367.046 442.203 353.458 442.135 340.405 C 441.884 314.265 441.828 288.122 441.966 261.981 L 358.194 262.276 z"/>
<path transform="translate(0,0)" fill="rgb(34,221,210)" d="M 357.936 380.068 C 359.762 341.197 359.131 301.191 358.194 262.276 L 441.966 261.981 C 441.828 288.122 441.884 314.265 442.135 340.405 C 442.203 353.458 443.042 367.046 441.813 380.025 L 357.936 380.068 z"/>
<path transform="translate(0,0)" fill="rgb(2,60,197)" d="M 193.01 382.082 L 192.962 319.013 C 224.388 319.251 255.815 319.265 287.241 319.055 C 287.093 340.065 287.073 361.076 287.18 382.087 L 193.01 382.082 z M 196.128 322.153 C 196.27 341.385 196.266 360.618 196.115 379.85 C 225.104 379.727 254.32 378.837 283.285 379.746 C 283.679 360.497 283.871 341.244 283.863 321.991 C 254.619 322.223 225.373 322.276 196.128 322.153 z"/>
<path transform="translate(0,0)" fill="rgb(34,221,210)" d="M 196.115 379.85 C 196.266 360.618 196.27 341.385 196.128 322.153 C 225.373 322.276 254.619 322.223 283.863 321.991 C 283.871 341.244 283.679 360.497 283.285 379.746 C 254.32 378.837 225.104 379.727 196.115 379.85 z"/>
<path transform="translate(0,0)" fill="rgb(255,255,255)" d="M 1804.48 516.772 C 1751.48 523.365 1703.23 485.607 1696.89 432.581 C 1690.55 379.555 1728.54 331.483 1781.59 325.394 C 1834.29 319.345 1881.97 357.023 1888.27 409.694 C 1894.57 462.364 1857.12 510.223 1804.48 516.772 z"/>
<path transform="translate(0,0)" fill="rgb(46,115,234)" d="M 1312.89 639.97 L 1326.66 640.082 C 1364.91 638.535 1403.74 642.29 1441.85 639.335 L 1441.76 981.118 C 1441.73 1038.27 1442.48 1095.56 1441.44 1152.7 L 1312.75 1152.36 L 1312.39 947.269 C 1311.05 844.912 1312.69 742.346 1312.89 639.97 z"/>
<path transform="translate(0,0)" fill="rgb(46,115,234)" d="M 314.344 738.338 L 377.986 729.507 C 379.401 731.213 379.743 737.472 380.237 740.013 C 383.944 759.097 388.431 777.107 394.964 795.43 C 427.551 886.831 489.701 947.441 576.399 988.615 C 570.341 971.158 563.07 953.562 555.245 936.827 C 573.751 930.467 592.2 923.501 610.942 917.889 C 624.191 957.641 643.943 995.298 658.205 1034.69 C 662.253 1045.88 663.777 1056.66 658.21 1067.8 C 653.076 1078.06 644.178 1082.95 633.751 1086.46 C 594.883 1096.15 555.019 1102.5 515.975 1111.55 C 511.41 1091.81 504.406 1072.31 499.238 1052.66 C 510.202 1049.11 521.142 1045.86 532.301 1042.98 C 513.637 1027.72 492.341 1016.03 472.715 1002.11 C 416.596 962.299 368.727 901.07 342.246 837.74 C 328.778 805.529 320.274 772.675 314.344 738.338 z"/>
<path transform="translate(0,0)" fill="rgb(46,115,234)" d="M 1598.04 1079.99 C 1620.88 1069.26 1642.63 1057.63 1663.84 1043.91 C 1764.85 978.568 1820.71 881.681 1845.5 765.786 C 1865.2 771.794 1885.73 776.297 1905.65 781.714 C 1901.53 805.13 1894.36 828.588 1886.95 851.141 C 1846.7 973.633 1762.25 1070.49 1647.29 1128.66 C 1641.05 1131.8 1634.75 1134.67 1628.33 1137.42 C 1618.07 1118.36 1607.97 1099.22 1598.04 1079.99 z"/>
<path transform="translate(0,0)" fill="rgb(46,115,234)" d="M 1056.19 769.91 C 1091.78 769.976 1127.36 769.834 1162.95 769.485 L 1183.7 769.094 L 1183.36 996.147 C 1183.41 1048.06 1184.42 1100.14 1183.28 1152.04 L 1078.75 1152.27 L 1056.19 1152.23 L 1056.19 769.91 z"/>
<path transform="translate(0,0)" fill="rgb(46,115,234)" d="M 806.008 1152.11 C 804.004 1152.22 802.586 1151.99 800.656 1151.45 C 799.084 1144.8 799.345 933.39 800.556 928.812 L 803.12 927.575 C 844.571 927.709 886.022 927.601 927.471 927.25 L 927.335 1077.01 C 927.362 1101.89 928.299 1127.14 927.204 1151.97 L 806.008 1152.11 z"/>
<path transform="translate(0,0)" fill="rgb(46,115,234)" d="M 1890.5 1475.2 C 1917.36 1476.75 1945.64 1486.01 1968.73 1499.75 C 2004.51 1521.05 2028.75 1553.17 2040.15 1593.02 C 2043.37 1604.28 2044.77 1615.85 2047.71 1627.14 L 2048 1628.2 L 2048 2015.94 L 1838.2 2015.94 C 1802.16 2015.94 1765.98 2016.61 1729.96 2015.86 L 1729.74 1872.15 C 1729.87 1840.71 1731.46 1808.37 1729.02 1777.03 C 1728.54 1777.47 1728.06 1777.9 1727.58 1778.34 C 1721.74 1783.76 1716.58 1791.2 1711.67 1797.48 C 1686.18 1830.14 1675.95 1849.22 1632.37 1856.6 L 1632.02 1917.97 L 1344.21 1918.07 L 1344.73 2048 L 1281.97 2048 L 1281.31 1917.86 L 1086.68 1917.95 C 1086.52 1897.12 1086.53 1876.29 1086.71 1855.46 C 1113.32 1854.6 1140.15 1855.07 1166.78 1855.08 L 1323.49 1855.18 C 1301.89 1801.96 1278.45 1749.48 1256.78 1696.28 L 1216.13 1598.6 C 1204.14 1569.49 1192.76 1539.83 1179 1511.5 C 1196.61 1502.17 1216.52 1494.57 1235.12 1487.35 C 1250.32 1526.79 1268.84 1565.14 1284.81 1604.33 L 1323.83 1699.89 C 1333.25 1722.91 1342.36 1746.33 1353.53 1768.56 C 1357.84 1762.71 1362.09 1756.89 1367.21 1751.71 C 1377.41 1741.4 1390.17 1733.3 1404.27 1729.6 C 1428.41 1723.26 1462.1 1726.21 1487.56 1726.23 L 1592.96 1726.08 C 1606.86 1711.93 1620.17 1692.68 1632.9 1677.13 L 1722.2 1568.27 C 1742.47 1543.65 1761.65 1516.44 1788.86 1498.89 C 1811.88 1484.03 1835.99 1478.63 1862.78 1475.09 C 1838.23 1472.09 1817.22 1464.89 1797.02 1450.06 C 1759.97 1422.87 1736.93 1375.61 1730.42 1330.93 C 1724.11 1287.58 1730.22 1243.84 1757.25 1208.27 C 1781.91 1175.84 1815.64 1155.14 1856.26 1149.85 C 1893.29 1145.02 1933.26 1155.94 1962.77 1178.77 C 1994.27 1203.13 2012.51 1239.54 2017.22 1278.77 C 2023.23 1328.8 2009.26 1382.27 1977.99 1422.02 C 1955.86 1450.16 1926.47 1470.74 1890.5 1475.2 z"/>
<path transform="translate(0,0)" fill="rgb(34,221,210)" d="M 0 1648.08 C 0.240646 1647.71 0.494035 1647.34 0.721938 1646.96 C 3.6999 1642 4.3337 1617.22 5.97812 1609.74 C 19.8176 1548.6 65.3352 1499.55 125.273 1481.19 C 135.425 1478.14 145.819 1476.1 156.244 1474.24 C 113.92 1465.29 85.4642 1440.69 62.1262 1404.9 C 36.7453 1365.98 23.4067 1317.11 33.1218 1271 C 41.6962 1230.31 67.029 1196.49 101.765 1174.01 C 134.011 1153.38 173.16 1146.49 210.513 1154.85 C 246.555 1162.83 281.083 1187.77 300.565 1219.01 C 322.998 1255 328.053 1297.27 318.221 1338.11 C 307.025 1384.62 279.275 1432.3 237.552 1457.61 C 221.485 1467.36 206.991 1471.25 188.802 1474.43 C 208.334 1480.03 227.032 1483.9 245.393 1493.29 C 255.419 1498.42 264.466 1505.21 273.435 1511.97 C 313.822 1542.42 330.139 1569.51 359.299 1608.39 C 377.581 1632.77 396.122 1656.92 414.088 1681.53 C 425.303 1696.9 436.118 1713.66 448.932 1727.69 L 567.858 1727.59 C 589.458 1727.59 619.197 1725.07 639.787 1729.77 C 651.871 1732.54 662.52 1739.05 671.28 1747.72 C 678.144 1754.61 683.922 1762.51 688.414 1771.14 C 688.638 1773.26 688.829 1775.17 688.291 1777.27 C 686.017 1786.11 680.824 1795.45 677.132 1803.86 C 669.589 1821.04 661.833 1838.36 655.528 1856.04 L 484.447 1856.13 C 469.295 1856.12 429.724 1854.05 417.275 1856.5 C 393.038 1856.09 373.853 1852.81 356.279 1834.7 C 340.702 1818.65 330.543 1797.15 320.096 1777.6 C 318.268 1856.88 319.899 1936.51 319.787 2015.83 L 0 2015.96 L 0 1648.08 z"/>
<path transform="translate(0,0)" fill="rgb(46,115,234)" d="M 703.566 1278.51 C 703.749 1257.06 704.302 1235.48 703.072 1214.06 L 1533.89 1214.16 C 1533.8 1226.9 1535.89 1269.16 1532.81 1278.35 C 1479.14 1279.67 1425.21 1278.79 1371.52 1278.74 L 1056.53 1278.37 L 824.372 1278.97 C 784.31 1279.03 743.524 1280.67 703.566 1278.51 z"/>
<path transform="translate(0,0)" fill="rgb(46,115,234)" d="M 688.414 1771.14 L 690.406 1771.75 C 723.755 1698.39 754.208 1623.56 785.971 1549.51 C 794.847 1528.81 804.662 1508.52 813.621 1487.87 C 832.384 1494.32 850.055 1503.88 868.624 1510.97 L 721.882 1855.54 L 961.005 1854.92 L 961.081 1917.8 C 896.758 1917.84 832.316 1917.01 768.008 1917.98 L 768.173 2048 L 704.023 2048 L 704.121 1917.62 C 608.575 1919.09 512.836 1918.03 417.274 1917.98 C 416.757 1897.54 417.437 1876.96 417.275 1856.5 C 429.724 1854.05 469.295 1856.12 484.447 1856.13 L 655.528 1856.04 C 661.833 1838.36 669.589 1821.04 677.132 1803.86 C 680.824 1795.45 686.017 1786.11 688.291 1777.27 C 688.829 1775.17 688.638 1773.26 688.414 1771.14 z"/>
<path transform="translate(0,0)" fill="rgb(255,255,255)" d="M 1729.96 2015.86 C 1765.98 2016.61 1802.16 2015.94 1838.2 2015.94 L 2048 2015.94 L 2048 2048 L 1344.73 2048 L 1344.21 1918.07 L 1632.02 1917.97 L 1632.37 1856.6 C 1675.95 1849.22 1686.18 1830.14 1711.67 1797.48 C 1716.58 1791.2 1721.74 1783.76 1727.58 1778.34 C 1728.06 1777.9 1728.54 1777.47 1729.02 1777.03 C 1731.46 1808.37 1729.87 1840.71 1729.74 1872.15 L 1729.96 2015.86 z"/>
<path transform="translate(0,0)" fill="rgb(255,255,255)" d="M 320.096 1777.6 C 330.543 1797.15 340.702 1818.65 356.279 1834.7 C 373.853 1852.81 393.038 1856.09 417.275 1856.5 C 417.437 1876.96 416.757 1897.54 417.274 1917.98 C 512.836 1918.03 608.575 1919.09 704.121 1917.62 L 704.023 2048 L 0 2048 L 0 2015.96 L 319.787 2015.83 C 319.899 1936.51 318.268 1856.88 320.096 1777.6 z"/>
</svg>